<?xml version="1.0" encoding="utf-8"?>
<svg width="808" height="364" viewBox="0 0 808 364" xmlns="http://www.w3.org/2000/svg">
<rect id="frame" x="0" y="0" width="808" height="364" fill="#f7f7f7" stroke="none" stroke-width="0"/>

<!-- Association vendre -->
<g class="page_0_nuJ8CSuu diagram_page" visibility="visible">
	<line x1="102" y1="102" x2="413" y2="102" stroke="#7fbc41" stroke-width="2"/>
	<text x="200" y="119" fill="#c51b7d" font-family="Verdana" font-size="12">1,1</text>
	<line x1="651" y1="102" x2="413" y2="102" stroke="#7fbc41" stroke-width="2"/>
	<text x="591" y="119" fill="#c51b7d" font-family="Verdana" font-size="12">1,N</text>
	<g>
		<path d="M428 77 a14 14 90 0 1 14 14 V102 h-58 V91 a14 14 90 0 1 14 -14" fill="#b8e186" stroke="#b8e186" stroke-width="0"/>
		<path d="M442 102 v11 a14 14 90 0 1 -14 14 H398 a14 14 90 0 1 -14 -14 V102 H58" fill="#e6f5d0" stroke="#e6f5d0" stroke-width="0"/>
		<rect x="384" y="77" width="58" height="50" fill="none" rx="14" stroke="#7fbc41" stroke-width="2"/>
		<line x1="384" y1="102" x2="442" y2="102" stroke="#7fbc41" stroke-width="1"/>
		<text x="392" y="94.75" fill="#000" font-family="Verdana" font-size="12">vendre</text>
	</g>
</g>

<!-- Association posseder -->
<g class="page_0_nuJ8CSuu diagram_page" visibility="visible">
	<line x1="102" y1="102" x2="102" y2="279" stroke="#7fbc41" stroke-width="2"/>
	<text x="107" y="212" fill="#c51b7d" font-family="Verdana" font-size="12">1,1</text>
	<line x1="258" y1="279" x2="102" y2="279" stroke="#7fbc41" stroke-width="2"/>
	<text x="142" y="296" fill="#c51b7d" font-family="Verdana" font-size="12">1,N</text>
	<g>
		<path d="M123 254 a14 14 90 0 1 14 14 V279 h-70 V268 a14 14 90 0 1 14 -14" fill="#b8e186" stroke="#b8e186" stroke-width="0"/>
		<path d="M137 279 v11 a14 14 90 0 1 -14 14 H81 a14 14 90 0 1 -14 -14 V279 H70" fill="#e6f5d0" stroke="#e6f5d0" stroke-width="0"/>
		<rect x="67" y="254" width="70" height="50" fill="none" rx="14" stroke="#7fbc41" stroke-width="2"/>
		<line x1="67" y1="279" x2="137" y2="279" stroke="#7fbc41" stroke-width="1"/>
		<text x="75" y="271.75" fill="#000" font-family="Verdana" font-size="12">posseder</text>
	</g>
</g>

<!-- Association compose -->
<g class="page_0_nuJ8CSuu diagram_page" visibility="visible">
	<line x1="258" y1="279" x2="413" y2="279" stroke="#7fbc41" stroke-width="2"/>
	<text x="352" y="296" fill="#c51b7d" font-family="Verdana" font-size="12">1,1</text>
	<line x1="530" y1="279" x2="413" y2="279" stroke="#7fbc41" stroke-width="2"/>
	<text x="452" y="296" fill="#c51b7d" font-family="Verdana" font-size="12">1,N</text>
	<g>
		<path d="M433 254 a14 14 90 0 1 14 14 V279 h-68 V268 a14 14 90 0 1 14 -14" fill="#b8e186" stroke="#b8e186" stroke-width="0"/>
		<path d="M447 279 v11 a14 14 90 0 1 -14 14 H393 a14 14 90 0 1 -14 -14 V279 H68" fill="#e6f5d0" stroke="#e6f5d0" stroke-width="0"/>
		<rect x="379" y="254" width="68" height="50" fill="none" rx="14" stroke="#7fbc41" stroke-width="2"/>
		<line x1="379" y1="279" x2="447" y2="279" stroke="#7fbc41" stroke-width="1"/>
		<text x="386" y="271.75" fill="#000" font-family="Verdana" font-size="12">compose</text>
	</g>
</g>

<!-- Association compose_ -->
<g class="page_0_nuJ8CSuu diagram_page" visibility="visible">
	<line x1="530" y1="279" x2="651" y2="279" stroke="#7fbc41" stroke-width="2"/>
	<text x="586" y="296" fill="#c51b7d" font-family="Verdana" font-size="12">1,1</text>
	<line x1="760" y1="279" x2="651" y2="279" stroke="#7fbc41" stroke-width="2"/>
	<text x="694" y="296" fill="#c51b7d" font-family="Verdana" font-size="12">1,N</text>
	<g>
		<path d="M675 254 a14 14 90 0 1 14 14 V279 h-76 V268 a14 14 90 0 1 14 -14" fill="#b8e186" stroke="#b8e186" stroke-width="0"/>
		<path d="M689 279 v11 a14 14 90 0 1 -14 14 H627 a14 14 90 0 1 -14 -14 V279 H76" fill="#e6f5d0" stroke="#e6f5d0" stroke-width="0"/>
		<rect x="613" y="254" width="76" height="50" fill="none" rx="14" stroke="#7fbc41" stroke-width="2"/>
		<line x1="613" y1="279" x2="689" y2="279" stroke="#7fbc41" stroke-width="1"/>
		<text x="620" y="271.75" fill="#000" font-family="Verdana" font-size="12">compose_</text>
	</g>
</g>

<!-- Entity BIEN -->
<g class="page_0_nuJ8CSuu diagram_page" visibility="visible">
	<g>
		<rect x="9" y="9" width="186" height="25" fill="#f1b6da" stroke="#f1b6da" stroke-width="0" opacity="1"/>
		<rect x="9" y="34" width="186" height="161" fill="#fde0ef" stroke="#fde0ef" stroke-width="0" opacity="1"/>
		<rect x="9" y="9" width="186" height="186" fill="none" stroke="#de77ae" stroke-width="2" opacity="1"/>
		<line x1="9" y1="34" x2="195" y2="34" stroke="#de77ae" stroke-width="1"/>
	</g>
	<text x="87" y="26.75" fill="#000" font-family="Verdana" font-size="12">BIEN</text>
	<text x="14" y="51.8" fill="#000" font-family="Verdana" font-size="12">Id_bien</text>
	<line x1="14" y1="54" x2="61" y2="54" stroke="#000" stroke-width="1"/>
	<text x="14" y="68.8" fill="#000" font-family="Verdana" font-size="12">no_voie</text>
	<text x="14" y="85.8" fill="#000" font-family="Verdana" font-size="12">type_voie</text>
	<text x="14" y="102.8" fill="#000" font-family="Verdana" font-size="12">voie</text>
	<text x="14" y="119.8" fill="#000" font-family="Verdana" font-size="12">total_piece</text>
	<text x="14" y="136.8" fill="#000" font-family="Verdana" font-size="12">surface_carrez</text>
	<text x="14" y="153.8" fill="#000" font-family="Verdana" font-size="12">surface_local</text>
	<text x="14" y="170.8" fill="#000" font-family="Verdana" font-size="12">type_local</text>
	<text x="14" y="187.8" fill="#000" font-family="Verdana" font-size="12">#id_codedep_codecommune</text>
</g>

<!-- Entity VENTE -->
<g class="page_0_nuJ8CSuu diagram_page" visibility="visible">
	<g>
		<rect x="618" y="51" width="66" height="25" fill="#f1b6da" stroke="#f1b6da" stroke-width="0" opacity="1"/>
		<rect x="618" y="76" width="66" height="77" fill="#fde0ef" stroke="#fde0ef" stroke-width="0" opacity="1"/>
		<rect x="618" y="51" width="66" height="102" fill="none" stroke="#de77ae" stroke-width="2" opacity="1"/>
		<line x1="618" y1="76" x2="684" y2="76" stroke="#de77ae" stroke-width="1"/>
	</g>
	<text x="631" y="68.75" fill="#000" font-family="Verdana" font-size="12">VENTE</text>
	<text x="623" y="93.8" fill="#000" font-family="Verdana" font-size="12">Id_vente</text>
	<line x1="623" y1="96" x2="678" y2="96" stroke="#000" stroke-width="1"/>
	<text x="623" y="110.8" fill="#000" font-family="Verdana" font-size="12">Id_bien</text>
	<text x="623" y="127.8" fill="#000" font-family="Verdana" font-size="12">date</text>
	<text x="623" y="144.8" fill="#000" font-family="Verdana" font-size="12">valeur</text>
</g>

<!-- Entity COMMUNE -->
<g class="page_0_nuJ8CSuu diagram_page" visibility="visible">
	<g>
		<rect x="169" y="220" width="178" height="25" fill="#f1b6da" stroke="#f1b6da" stroke-width="0" opacity="1"/>
		<rect x="169" y="245" width="178" height="93" fill="#fde0ef" stroke="#fde0ef" stroke-width="0" opacity="1"/>
		<rect x="169" y="220" width="178" height="118" fill="none" stroke="#de77ae" stroke-width="2" opacity="1"/>
		<line x1="169" y1="245" x2="347" y2="245" stroke="#de77ae" stroke-width="1"/>
	</g>
	<text x="226" y="237.75" fill="#000" font-family="Verdana" font-size="12">COMMUNE</text>
	<text x="174" y="262.8" fill="#000" font-family="Verdana" font-size="12">Id_codedep_codecommune</text>
	<line x1="174" y1="265" x2="341" y2="265" stroke="#000" stroke-width="1"/>
	<text x="174" y="279.8" fill="#000" font-family="Verdana" font-size="12">#code_departement</text>
	<text x="174" y="296.8" fill="#000" font-family="Verdana" font-size="12">code_commune</text>
	<text x="174" y="313.8" fill="#000" font-family="Verdana" font-size="12">code_postal</text>
	<text x="174" y="330.8" fill="#000" font-family="Verdana" font-size="12">nom_commune</text>
</g>

<!-- Entity DEPARTEMENT -->
<g class="page_0_nuJ8CSuu diagram_page" visibility="visible">
	<g>
		<rect x="479" y="237" width="102" height="25" fill="#f1b6da" stroke="#f1b6da" stroke-width="0" opacity="1"/>
		<rect x="479" y="262" width="102" height="59" fill="#fde0ef" stroke="#fde0ef" stroke-width="0" opacity="1"/>
		<rect x="479" y="237" width="102" height="84" fill="none" stroke="#de77ae" stroke-width="2" opacity="1"/>
		<line x1="479" y1="262" x2="581" y2="262" stroke="#de77ae" stroke-width="1"/>
	</g>
	<text x="485" y="254.75" fill="#000" font-family="Verdana" font-size="12">DEPARTEMENT</text>
	<text x="484" y="279.8" fill="#000" font-family="Verdana" font-size="12">dep_code</text>
	<line x1="484" y1="282" x2="543" y2="282" stroke="#000" stroke-width="1"/>
	<text x="484" y="296.8" fill="#000" font-family="Verdana" font-size="12">dep_nom</text>
	<text x="484" y="313.8" fill="#000" font-family="Verdana" font-size="12">#reg_code</text>
</g>

<!-- Entity REGION -->
<g class="page_0_nuJ8CSuu diagram_page" visibility="visible">
	<g>
		<rect x="721" y="203" width="78" height="25" fill="#f1b6da" stroke="#f1b6da" stroke-width="0" opacity="1"/>
		<rect x="721" y="228" width="78" height="127" fill="#fde0ef" stroke="#fde0ef" stroke-width="0" opacity="1"/>
		<rect x="721" y="203" width="78" height="152" fill="none" stroke="#de77ae" stroke-width="2" opacity="1"/>
		<line x1="721" y1="228" x2="799" y2="228" stroke="#de77ae" stroke-width="1"/>
	</g>
	<text x="735" y="220.75" fill="#000" font-family="Verdana" font-size="12">REGION</text>
	<text x="726" y="245.8" fill="#000" font-family="Verdana" font-size="12">CODREG</text>
	<line x1="726" y1="248" x2="779" y2="248" stroke="#000" stroke-width="1"/>
	<text x="726" y="262.8" fill="#000" font-family="Verdana" font-size="12">reg_nom</text>
	<text x="726" y="279.8" fill="#000" font-family="Verdana" font-size="12">aca_nom</text>
	<text x="726" y="296.8" fill="#000" font-family="Verdana" font-size="12">regrp_nom</text>
	<text x="726" y="313.8" fill="#000" font-family="Verdana" font-size="12">PTOT</text>
	<text x="726" y="330.8" fill="#000" font-family="Verdana" font-size="12">PCAP</text>
	<text x="726" y="347.8" fill="#000" font-family="Verdana" font-size="12">PMUN</text>
</g>
</svg>